<?xml version="1.0" encoding="UTF-8"?>
<svg id="Layer_1" data-name="Layer 1" xmlns="http://www.w3.org/2000/svg" viewBox="0 0 987.26 790.75">
  <defs>
    <style>
      .cls-1 {
        fill: #7fb5b8;
        fill-rule: evenodd;
      }
    </style>
  </defs>
  <path class="cls-1" d="M524.46,386.32c5.42-31.67-32.65-32.15-47.28-12.26-25.73,34.98,18.2,79.81,60.59,62.66l14.18-7.93,10.91-11.16c15.23-21.98,14.79-55.71-.17-77.5l-14.29-14.81c-12.38-8.16-23.5-13.76-41.54-15.15-17.71-1.36-43.46,5.09-56.03,16.38-2.97,2.67-4.97,3.71-7.87,6.23-3.9,3.39-8.97,11.23-12.71,16.36-17.18,23.57-17.26,65.36-2.69,91.01,8.12,14.29,14.31,21.96,26.96,31.12,24.63,17.83,61.51,24.87,92.13,16.32,13.3-3.72,32.9-11.55,42.61-22.51,1.52-1.72,1.76-2.07,3.34-3.67l7.13-6.87c44.8-49.67,33.81-132-18.32-171.25-27.56-20.75-64.39-31.36-99.86-26.12-15.46,2.29-29.18,8.04-42.82,14.25-8.97,4.08-17.99,10.09-24.43,16.63-.34.35-.42.55-1.47,1.5-24.27,21.83-41.23,49.84-46.83,83.39-6.42,38.48,4.94,83.01,29.34,112.42,7.04,8.49,14.54,16.86,22.98,24.05.8.68.78.57,1.73,1.31l21.76,14.32c35.44,18.79,80.04,21.98,118.35,8.04,17.43-6.34,42.91-20.43,53.18-33.91l6.58-8.49c9.87-12.83.42-16.62-3.88-16-3.34.48-5.14,4.48-7.29,6.88-2.44,2.71-4.95,5-7.78,7.22l-16.17,12.8c-3,1.98-5.01,3.68-8.32,5.58-11.05,6.33-27.91,12.32-42.44,14.56-36.9,5.68-74.79-3.53-100.43-25.66-3.22-2.78-5.01-3.61-7.37-6.64l-7.6-7.27c-4.56-3.5-9.34-11.26-12.76-16.27-31-45.4-28.76-103.52,5.28-145.96.77-.95,1.14-1.21,1.87-2.1.7-.86.77-1.04,1.28-1.73,2.8-3.73,6.07-5.48,9.14-8.83l9.25-8.67c1.68-1.19,2.22-1.36,4.2-2.83,37.77-27.98,92.76-25.68,130.05,2.06l8.36,6.63c5.26,4.19,9.37,9.98,13.54,15.35,30.29,38.99,24.01,102.91-15.75,133.07-30.92,23.45-77.35,26.04-107.65,1.4-31.76-25.85-38.15-64.8-14.66-99.62l7.12-7.89c18.43-19.89,62.02-25.94,81.74-2.67,2.68,3.16,4.32,3.84,6.65,7.27,27.93,40.99-16.68,89.15-48.54,62.61-1.86-1.55-4.66-5.64-6.18-8.71-2.04-4.12-2.52-7.61-1.49-12.32,1.37-6.26,8.08-13.99,14.86-14.39,12.39-.74,7.62,9.87,19.46,7.77h0Z"/>
</svg>